<svg xmlns="http://www.w3.org/2000/svg" version="1.1" xmlns:xlink="http://www.w3.org/1999/xlink" viewBox="0 0 200 200"><rect width="200" height="200" fill="url('#gradient')"></rect><defs><linearGradient id="gradient" gradientTransform="rotate(45 0.5 0.5)"><stop offset="0%" stop-color="#000000"></stop><stop offset="100%" stop-color="#000000"></stop></linearGradient></defs><g><g fill="#b2d8e9" transform="matrix(2.7461263408820025,0,0,2.7461263408820025,9.034562252275421,120.32367800643249)" stroke="#48d7b1" stroke-width="0.2"><path d="M12.24-14.22L12.24-11.57L7.97-11.57L7.97 0L4.54 0L4.54-11.57L0.35-11.57L0.35-14.22L12.24-14.22ZM21.13 0L17.84 0Q17.67-0.32 17.53-0.95L17.53-0.95Q16.62 0.20 14.99 0.20L14.99 0.20Q13.50 0.20 12.45-0.71Q11.41-1.61 11.41-2.98L11.41-2.98Q11.41-4.70 12.68-5.58Q13.95-6.46 16.37-6.46L16.37-6.46L17.38-6.46L17.38-7.01Q17.38-8.47 16.12-8.47L16.12-8.47Q14.95-8.47 14.95-7.31L14.95-7.31L11.66-7.31Q11.66-8.85 12.96-9.80Q14.27-10.76 16.29-10.76Q18.31-10.76 19.48-9.78Q20.65-8.79 20.68-7.07L20.68-7.07L20.68-2.39Q20.70-0.94 21.13-0.17L21.13-0.17L21.13 0ZM15.78-2.15L15.78-2.15Q16.40-2.15 16.80-2.41Q17.21-2.68 17.38-3.01L17.38-3.01L17.38-4.70L16.43-4.70Q14.71-4.70 14.71-3.15L14.71-3.15Q14.71-2.71 15.01-2.43Q15.31-2.15 15.78-2.15ZM25.72-15L25.72-9.43Q26.78-10.76 28.42-10.76L28.42-10.76Q30.17-10.76 31.05-9.73Q31.94-8.69 31.96-6.67L31.96-6.67L31.96 0L28.66 0L28.66-6.59Q28.66-7.43 28.32-7.83Q27.98-8.22 27.16-8.22L27.16-8.22Q26.14-8.22 25.72-7.58L25.72-7.58L25.72 0L22.43 0L22.43-15L25.72-15ZM33.82-10.57L36.90-10.57L37.01-9.33Q38.13-10.76 40.03-10.76L40.03-10.76Q42.03-10.76 42.73-9.17L42.73-9.17Q43.81-10.76 45.84-10.76L45.84-10.76Q49.05-10.76 49.14-6.88L49.14-6.88L49.14 0L45.84 0L45.84-6.67Q45.84-7.48 45.57-7.85Q45.29-8.22 44.57-8.22L44.57-8.22Q43.59-8.22 43.12-7.35L43.12-7.35L43.13-7.22L43.13 0L39.82 0L39.82-6.65Q39.82-7.48 39.56-7.85Q39.30-8.22 38.55-8.22L38.55-8.22Q37.61-8.22 37.11-7.35L37.11-7.35L37.11 0L33.82 0L33.82-10.57ZM54.49-10.57L54.49 0L51.19 0L51.19-10.57L54.49-10.57ZM51.00-13.29L51.00-13.29Q51.00-13.99 51.50-14.44Q52.01-14.89 52.82-14.89Q53.63-14.89 54.14-14.44Q54.65-13.99 54.65-13.29Q54.65-12.59 54.14-12.14Q53.63-11.69 52.82-11.69Q52.01-11.69 51.50-12.14Q51.00-12.59 51.00-13.29ZM56.10-5.36L56.10-5.36Q56.10-7.87 57.19-9.32Q58.27-10.76 60.21-10.76L60.21-10.76Q61.63-10.76 62.60-9.65L62.60-9.65L62.60-15L65.90-15L65.90 0L62.94 0L62.77-1.13Q61.76 0.20 60.20 0.20L60.20 0.20Q58.31 0.20 57.21-1.25Q56.10-2.70 56.10-5.36ZM59.40-5.76L59.39-5.16Q59.39-2.34 61.04-2.34L61.04-2.34Q62.13-2.34 62.60-3.26L62.60-3.26L62.60-7.29Q62.15-8.22 61.05-8.22L61.05-8.22Q59.53-8.22 59.40-5.76L59.40-5.76Z"></path></g></g></svg>